<?xml version="1.0" encoding="UTF-8" standalone="no"?>
<svg
   version="1.1"
   width="512"
   height="512"
   style="clip-rule:evenodd;fill-rule:evenodd;image-rendering:optimizeQuality;shape-rendering:geometricPrecision;text-rendering:geometricPrecision"
   id="svg1560"
   sodipodi:docname="irisa.svg"
   inkscape:version="1.2.2 (732a01da63, 2022-12-09)"
   xmlns:inkscape="http://www.inkscape.org/namespaces/inkscape"
   xmlns:sodipodi="http://sodipodi.sourceforge.net/DTD/sodipodi-0.dtd"
   xmlns="http://www.w3.org/2000/svg"
   xmlns:svg="http://www.w3.org/2000/svg">
  <defs
     id="defs1564" />
  <sodipodi:namedview
     id="namedview1562"
     pagecolor="#ffffff"
     bordercolor="#666666"
     borderopacity="1.0"
     inkscape:showpageshadow="2"
     inkscape:pageopacity="0.0"
     inkscape:pagecheckerboard="0"
     inkscape:deskcolor="#d1d1d1"
     showgrid="false"
     showguides="true"
     inkscape:zoom="1.4289028"
     inkscape:cx="394.70844"
     inkscape:cy="192.80528"
     inkscape:window-width="2400"
     inkscape:window-height="1261"
     inkscape:window-x="-9"
     inkscape:window-y="-9"
     inkscape:window-maximized="1"
     inkscape:current-layer="svg1560">
    <sodipodi:guide
       position="278.53539,242.5625"
       orientation="1,0"
       id="guide1566"
       inkscape:locked="false" />
  </sodipodi:namedview>
  <g
     id="g1214"
     transform="matrix(0.55072777,0,0,0.55072777,2.207366,-34.394826)">
    <path
       style="opacity:0.986"
       fill="#0092d1"
       d="m 402.5,156.5 c -16.363,-26.382 -32.363,-53.049 -48,-80 7.992,-3.5257 16.325,-4.6923 25,-3.5 11.538,3.2069 18.705,10.7069 21.5,22.5 5.064,20.26 5.564,40.593 1.5,61 z"
       id="path1212" />
  </g>
  <g
     id="g1218"
     transform="matrix(0.55072777,0,0,0.55072777,2.207366,-34.394826)">
    <path
       style="opacity:0.988"
       fill="#048eca"
       d="m 354.5,76.5 c 15.637,26.951 31.637,53.618 48,80 -2.244,11.318 -5.244,22.318 -9,33 -19.748,-33.832 -39.748,-67.498 -60,-101 6.511,-4.7587 13.511,-8.7587 21,-12 z"
       id="path1216" />
  </g>
  <g
     id="g1222"
     transform="matrix(0.55072777,0,0,0.55072777,2.207366,-34.394826)">
    <path
       style="opacity:0.991"
       fill="#048ac4"
       d="m 333.5,88.5 c 20.252,33.502 40.252,67.168 60,101 -2.428,9.284 -5.428,18.284 -9,27 -23.03,-37.716 -45.696,-75.716 -68,-114 5.075,-5.3727 10.741,-10.0394 17,-14 z"
       id="path1220" />
  </g>
  <g
     id="g1226"
     transform="matrix(0.55072777,0,0,0.55072777,2.207366,-34.394826)">
    <path
       style="opacity:0.991"
       fill="#0386be"
       d="m 316.5,102.5 c 22.304,38.284 44.97,76.284 68,114 -2.566,9.372 -5.899,18.372 -10,27 -24.681,-41.369 -49.348,-82.702 -74,-124 4.629,-6.297 9.962,-11.963 16,-17 z"
       id="path1224" />
  </g>
  <g
     id="g1230"
     transform="matrix(0.55072777,0,0,0.55072777,2.207366,-34.394826)">
    <path
       style="opacity:0.992"
       fill="#0284ba"
       d="m 300.5,119.5 c 24.652,41.298 49.319,82.631 74,124 -0.599,3.463 -1.599,6.796 -3,10 -25.724,-42.401 -51.057,-85.067 -76,-128 1.201,-2.409 2.867,-4.409 5,-6 z"
       id="path1228" />
  </g>
  <g
     id="g1234"
     transform="matrix(0.55072777,0,0,0.55072777,2.207366,-34.394826)">
    <path
       style="opacity:0.992"
       fill="#0181b7"
       d="m 295.5,125.5 c 24.943,42.933 50.276,85.599 76,128 -2.428,6.512 -5.095,12.845 -8,19 -26.096,-44.534 -52.43,-88.867 -79,-133 3.195,-5.069 6.862,-9.735 11,-14 z"
       id="path1232" />
  </g>
  <g
     id="g1238"
     transform="matrix(0.55072777,0,0,0.55072777,2.207366,-34.394826)">
    <path
       style="opacity:0.993"
       fill="#007eb1"
       d="m 284.5,139.5 c 26.57,44.133 52.904,88.466 79,133 -3.629,9.905 -7.629,19.571 -12,29 -28.057,-46.067 -55.723,-92.4 -83,-139 4.597,-8.199 9.93,-15.865 16,-23 z"
       id="path1236" />
  </g>
  <g
     id="g1242"
     transform="matrix(0.55072777,0,0,0.55072777,2.207366,-34.394826)">
    <path
       style="opacity:0.993"
       fill="#0079ab"
       d="m 268.5,162.5 c 27.277,46.6 54.943,92.933 83,139 -3.488,9.634 -7.488,18.967 -12,28 -28.681,-48.036 -57.348,-96.036 -86,-144 4.256,-8.187 9.256,-15.854 15,-23 z"
       id="path1240" />
  </g>
  <g
     id="g1246"
     transform="matrix(0.55072777,0,0,0.55072777,2.207366,-34.394826)">
    <path
       style="opacity:0.993"
       fill="#0077a7"
       d="m 253.5,185.5 c 28.652,47.964 57.319,95.964 86,144 -0.963,3.244 -2.296,6.244 -4,9 -28.763,-48.535 -57.763,-96.868 -87,-145 1.169,-3.011 2.836,-5.678 5,-8 z"
       id="path1244" />
  </g>
  <g
     id="g1250"
     transform="matrix(0.55072777,0,0,0.55072777,2.207366,-34.394826)">
    <path
       style="opacity:0.993"
       fill="#0075a4"
       d="m 248.5,193.5 c 29.237,48.132 58.237,96.465 87,145 -2.156,6.304 -4.822,12.304 -8,18 -29.333,-49.333 -58.667,-98.667 -88,-148 2.637,-5.284 5.637,-10.284 9,-15 z"
       id="path1248" />
  </g>
  <g
     id="g1254"
     transform="matrix(0.55072777,0,0,0.55072777,2.207366,-34.394826)">
    <path
       style="opacity:0.993"
       fill="#01729f"
       d="m 239.5,208.5 c 29.333,49.333 58.667,98.667 88,148 -3.49,8.975 -7.49,17.642 -12,26 -30.167,-49.662 -59.834,-99.662 -89,-150 3.828,-8.327 8.162,-16.327 13,-24 z"
       id="path1252" />
  </g>
  <g
     id="g1258"
     transform="matrix(0.55072777,0,0,0.55072777,2.207366,-34.394826)">
    <path
       style="opacity:0.993"
       fill="#056e99"
       d="m 226.5,232.5 c 29.166,50.338 58.833,100.338 89,150 -3.61,9.16 -7.61,18.16 -12,27 -30.501,-50.329 -60.501,-100.995 -90,-152 3.572,-8.813 7.905,-17.146 13,-25 z"
       id="path1256" />
  </g>
  <g
     id="g1286"
     transform="matrix(0.55072777,0,0,0.55072777,2.207366,-34.394826)">
    <path
       style="opacity:0.993"
       fill="#076b95"
       d="m 213.5,257.5 c 29.499,51.005 59.499,101.671 90,152 -1.726,4.453 -3.726,8.786 -6,13 -30.585,-50.167 -60.918,-100.501 -91,-151 1.826,-4.984 4.159,-9.651 7,-14 z"
       id="path1284" />
  </g>
  <g
     id="g1290"
     transform="matrix(0.55072777,0,0,0.55072777,2.207366,-34.394826)">
    <path
       style="opacity:0.993"
       fill="#096891"
       d="m 206.5,271.5 c 30.082,50.499 60.415,100.833 91,151 -3.157,7.646 -6.823,14.98 -11,22 -30,-50.667 -60,-101.333 -90,-152 2.964,-7.25 6.297,-14.25 10,-21 z"
       id="path1288" />
  </g>
  <g
     id="g1294"
     transform="matrix(0.55072777,0,0,0.55072777,2.207366,-34.394826)">
    <path
       style="opacity:0.994"
       fill="#0b668d"
       d="m 196.5,292.5 c 30,50.667 60,101.333 90,152 -1.243,4.75 -3.243,9.084 -6,13 -30,-50.333 -60,-100.667 -90,-151 1.488,-4.967 3.488,-9.634 6,-14 z"
       id="path1292" />
  </g>
  <g
     id="g1298"
     transform="matrix(0.55072777,0,0,0.55072777,2.207366,-34.394826)">
    <path
       style="opacity:0.993"
       fill="#0d648a"
       d="m 190.5,306.5 c 30,50.333 60,100.667 90,151 -1.764,5.973 -4.097,11.64 -7,17 -29.499,-51.005 -59.499,-101.671 -90,-152 1.822,-5.636 4.155,-10.969 7,-16 z"
       id="path1296" />
  </g>
  <g
     id="g1302"
     transform="matrix(0.55072777,0,0,0.55072777,2.207366,-34.394826)">
    <path
       style="opacity:0.993"
       fill="#106186"
       d="m 183.5,322.5 c 30.501,50.329 60.501,100.995 90,152 -3.69,10.74 -7.357,21.407 -11,32 -29.943,-51.266 -60.276,-102.266 -91,-153 3.233,-10.711 7.233,-21.045 12,-31 z"
       id="path1300" />
  </g>
  <g
     id="g1306"
     transform="matrix(0.55072777,0,0,0.55072777,2.207366,-34.394826)">
    <path
       style="opacity:0.996"
       fill="#01729f"
       d="m 485.5,350.5 c -12.582,30.968 -8.749,59.635 11.5,86 26.792,27.154 57.959,33.654 93.5,19.5 17.689,-8.853 30.355,-22.353 38,-40.5 2.321,3.296 4.654,6.629 7,10 -22.303,36.979 -54.97,52.146 -98,45.5 -43.212,-12.415 -66.212,-41.081 -69,-86 0.395,-11.472 2.395,-22.638 6,-33.5 3.619,-0.744 7.285,-1.077 11,-1 z"
       id="path1304" />
  </g>
  <g
     id="g1310"
     transform="matrix(0.55072777,0,0,0.55072777,2.207366,-34.394826)">
    <path
       style="opacity:0.997"
       fill="#0075a5"
       d="m 485.5,350.5 c 3.667,0 7.333,0 11,0 -15.789,33.647 -10.123,63.147 17,88.5 21.161,15.409 44.161,18.742 69,10 19.016,-8.212 32.016,-22.045 39,-41.5 2.323,2.626 4.657,5.293 7,8 -7.645,18.147 -20.311,31.647 -38,40.5 -35.541,14.154 -66.708,7.654 -93.5,-19.5 -20.249,-26.365 -24.082,-55.032 -11.5,-86 z"
       id="path1308" />
  </g>
  <g
     id="g1314"
     transform="matrix(0.55072777,0,0,0.55072777,2.207366,-34.394826)">
    <path
       style="opacity:0.998"
       fill="#0079ab"
       d="m 496.5,350.5 c 3.667,0 7.333,0 11,0 -16.169,29.019 -12.836,55.519 10,79.5 25.418,18.923 51.085,19.257 77,1 9.89,-8.382 16.223,-18.882 19,-31.5 1.667,1.333 3.333,2.667 5,4 1.762,0.762 2.762,2.096 3,4 -6.984,19.455 -19.984,33.288 -39,41.5 -24.839,8.742 -47.839,5.409 -69,-10 -27.123,-25.353 -32.789,-54.853 -17,-88.5 z"
       id="path1312" />
  </g>
  <g
     id="g1318"
     transform="matrix(0.55072777,0,0,0.55072777,2.207366,-34.394826)">
    <path
       style="opacity:0.996"
       fill="#007eb1"
       d="m 507.5,350.5 c 4.51,0.384 8.843,1.051 13,2 -13.585,15.783 -16.418,33.449 -8.5,53 11.829,21.498 29.995,30.665 54.5,27.5 21.418,-5.918 34.418,-19.752 39,-41.5 3,2.333 5.667,5 8,8 -2.777,12.618 -9.11,23.118 -19,31.5 -25.915,18.257 -51.582,17.923 -77,-1 -22.836,-23.981 -26.169,-50.481 -10,-79.5 z"
       id="path1316" />
  </g>
  <g
     id="g1322"
     transform="matrix(0.55072777,0,0,0.55072777,2.207366,-34.394826)">
    <path
       style="opacity:0.996"
       fill="#056e99"
       d="m 474.5,351.5 c -3.605,10.862 -5.605,22.028 -6,33.5 2.788,44.919 25.788,73.585 69,86 43.03,6.646 75.697,-8.521 98,-45.5 2.235,2.791 4.235,5.791 6,9 -30.738,43.968 -71.738,57.468 -123,40.5 -42.674,-21.162 -62.174,-55.662 -58.5,-103.5 1.033,-6.463 2.533,-12.796 4.5,-19 3.333,-0.333 6.667,-0.667 10,-1 z"
       id="path1320" />
  </g>
  <g
     id="g1326"
     transform="matrix(0.55072777,0,0,0.55072777,2.207366,-34.394826)">
    <path
       style="opacity:0.997"
       fill="#0182b8"
       d="m 520.5,352.5 c 3.925,-0.07 7.591,0.597 11,2 -13.504,12.374 -17.338,27.374 -11.5,45 9.71,19.938 25.543,27.771 47.5,23.5 17.812,-6.652 27.479,-19.485 29,-38.5 3.31,1.982 6.31,4.315 9,7 -4.582,21.748 -17.582,35.582 -39,41.5 -24.505,3.165 -42.671,-6.002 -54.5,-27.5 -7.918,-19.551 -5.085,-37.217 8.5,-53 z"
       id="path1324" />
  </g>
  <g
     id="g1330"
     transform="matrix(0.55072777,0,0,0.55072777,2.207366,-34.394826)">
    <path
       style="opacity:0.993"
       fill="#125e82"
       d="m 171.5,353.5 c 30.724,50.734 61.057,101.734 91,153 -1.509,7.034 -3.175,14.034 -5,21 -31.237,-51.465 -62.237,-103.132 -93,-155 1.535,-6.716 3.868,-13.05 7,-19 z"
       id="path1328" />
  </g>
  <g
     id="g1334"
     transform="matrix(0.55072777,0,0,0.55072777,2.207366,-34.394826)">
    <path
       style="opacity:0.997"
       fill="#076b95"
       d="m 464.5,352.5 c -1.967,6.204 -3.467,12.537 -4.5,19 -3.674,47.838 15.826,82.338 58.5,103.5 51.262,16.968 92.262,3.468 123,-40.5 0.941,1.55 1.607,3.216 2,5 -27.796,39.221 -65.462,54.055 -113,44.5 -31.839,-9.509 -54.673,-29.342 -68.5,-59.5 -8.578,-22.961 -9.745,-46.295 -3.5,-70 1.874,-0.785 3.874,-1.452 6,-2 z"
       id="path1332" />
  </g>
  <g
     id="g1338"
     transform="matrix(0.55072777,0,0,0.55072777,2.207366,-34.394826)">
    <path
       style="opacity:0.997"
       fill="#096891"
       d="m 458.5,354.5 c -6.245,23.705 -5.078,47.039 3.5,70 13.827,30.158 36.661,49.991 68.5,59.5 47.538,9.555 85.204,-5.279 113,-44.5 2.373,2.079 3.706,4.746 4,8 -29.779,39.545 -69.113,54.379 -118,44.5 -47.097,-14.342 -74.597,-45.842 -82.5,-94.5 -1.068,-13.798 -0.235,-27.464 2.5,-41 2.87,-1.134 5.87,-1.8 9,-2 z"
       id="path1336" />
  </g>
  <g
     id="g1342"
     transform="matrix(0.55072777,0,0,0.55072777,2.207366,-34.394826)">
    <path
       style="opacity:0.995"
       fill="#0386be"
       d="m 531.5,354.5 c 3.979,0.242 7.646,1.242 11,3 -14.731,9.228 -19.565,22.228 -14.5,39 11.171,19.335 26.671,23.835 46.5,13.5 10.437,-8.481 14.437,-19.314 12,-32.5 3.892,1.562 7.225,3.895 10,7 -1.521,19.015 -11.188,31.848 -29,38.5 -21.957,4.271 -37.79,-3.562 -47.5,-23.5 -5.838,-17.626 -2.004,-32.626 11.5,-45 z"
       id="path1340" />
  </g>
  <g
     id="g1346"
     transform="matrix(0.55072777,0,0,0.55072777,2.207366,-34.394826)">
    <path
       style="opacity:0.997"
       fill="#0b668d"
       d="m 449.5,356.5 c -2.735,13.536 -3.568,27.202 -2.5,41 7.903,48.658 35.403,80.158 82.5,94.5 48.887,9.879 88.221,-4.955 118,-44.5 1.237,1.465 2.237,3.132 3,5 -37.239,45.017 -83.572,57.85 -139,38.5 -44.581,-21.129 -67.914,-56.462 -70,-106 0.22,-9.262 1.22,-18.429 3,-27.5 1.617,-0.538 3.284,-0.871 5,-1 z"
       id="path1344" />
  </g>
  <g
     id="g1350"
     transform="matrix(0.55072777,0,0,0.55072777,2.207366,-34.394826)">
    <path
       style="opacity:0.997"
       fill="#0d648a"
       d="m 444.5,357.5 c -1.78,9.071 -2.78,18.238 -3,27.5 2.086,49.538 25.419,84.871 70,106 55.428,19.35 101.761,6.517 139,-38.5 0.863,1.921 1.529,3.921 2,6 -34.013,40.615 -77.013,54.781 -129,42.5 -54.958,-18.988 -84.291,-57.654 -88,-116 0.588,-8.564 1.588,-17.064 3,-25.5 2.079,-0.471 4.079,-1.137 6,-2 z"
       id="path1348" />
  </g>
  <g
     id="g1354"
     transform="matrix(0.55072777,0,0,0.55072777,2.207366,-34.394826)">
    <path
       style="opacity:0.99"
       fill="#048ac4"
       d="m 542.5,357.5 c 6.166,0.832 11.833,2.832 17,6 -19.04,0.543 -26.874,10.21 -23.5,29 7.615,14.314 18.782,17.814 33.5,10.5 10.358,-10.049 11.691,-21.216 4,-33.5 4.872,1.929 9.205,4.595 13,8 2.437,13.186 -1.563,24.019 -12,32.5 -19.829,10.335 -35.329,5.835 -46.5,-13.5 -5.065,-16.772 -0.231,-29.772 14.5,-39 z"
       id="path1352" />
  </g>
  <g
     id="g1358"
     transform="matrix(0.55072777,0,0,0.55072777,2.207366,-34.394826)">
    <path
       style="opacity:0.997"
       fill="#106186"
       d="m 438.5,359.5 c -1.412,8.436 -2.412,16.936 -3,25.5 3.709,58.346 33.042,97.012 88,116 51.987,12.281 94.987,-1.885 129,-42.5 1.905,3.716 3.239,7.716 4,12 -43.382,44.76 -94.382,56.26 -153,34.5 -49.339,-24.644 -75.339,-64.644 -78,-120 -0.013,-6.95 0.654,-13.784 2,-20.5 3.483,-1.906 7.15,-3.572 11,-5 z"
       id="path1356" />
  </g>
  <g
     id="g1362"
     transform="matrix(0.55072777,0,0,0.55072777,2.207366,-34.394826)">
    <path
       style="opacity:0.925"
       fill="#0095d5"
       d="m 740.5,394.5 c -17.351,-0.79 -34.684,-1.79 -52,-3 -11.262,-10.428 -23.262,-19.928 -36,-28.5 30.808,6.435 60.141,16.935 88,31.5 z"
       id="path1360" />
  </g>
  <g
     id="g1366"
     transform="matrix(0.55072777,0,0,0.55072777,2.207366,-34.394826)">
    <path
       style="opacity:0.999"
       fill="#048dc9"
       d="m 559.5,363.5 c 3.285,0.428 6.285,1.428 9,3 1.465,1.237 3.132,2.237 5,3 7.691,12.284 6.358,23.451 -4,33.5 -14.718,7.314 -25.885,3.814 -33.5,-10.5 -3.374,-18.79 4.46,-28.457 23.5,-29 z"
       id="path1364" />
  </g>
  <g
     id="g1370"
     transform="matrix(0.55072777,0,0,0.55072777,2.207366,-34.394826)">
    <path
       style="opacity:0.997"
       fill="#125e82"
       d="m 427.5,364.5 c -1.346,6.716 -2.013,13.55 -2,20.5 2.661,55.356 28.661,95.356 78,120 58.618,21.76 109.618,10.26 153,-34.5 1.112,2.099 1.779,4.433 2,7 -45.008,44.704 -97.342,55.87 -157,33.5 -47.144,-22.489 -74.311,-59.656 -81.5,-111.5 -0.763,-10.7 -0.596,-21.367 0.5,-32 1.926,-1.793 4.259,-2.793 7,-3 z"
       id="path1368" />
  </g>
  <g
     id="g1374"
     transform="matrix(0.55072777,0,0,0.55072777,2.207366,-34.394826)">
    <path
       style="opacity:0.996"
       fill="#115b7e"
       d="m 420.5,367.5 c -1.096,10.633 -1.263,21.3 -0.5,32 7.189,51.844 34.356,89.011 81.5,111.5 59.658,22.37 111.992,11.204 157,-33.5 0.99,3.243 1.99,6.576 3,10 -48.827,44.663 -104.161,54.83 -166,30.5 -58.545,-30.476 -86.879,-78.976 -85,-145.5 3.05,-2.192 6.383,-3.858 10,-5 z"
       id="path1372" />
  </g>
  <g
     id="g1378"
     transform="matrix(0.55072777,0,0,0.55072777,2.207366,-34.394826)">
    <path
       style="opacity:0.993"
       fill="#115b7e"
       d="m 164.5,372.5 c 30.763,51.868 61.763,103.535 93,155 -2.425,11.554 -4.092,23.22 -5,35 -32.724,-54.067 -65.057,-108.4 -97,-163 2.029,-9.421 5.029,-18.421 9,-27 z"
       id="path1376" />
  </g>
  <g
     id="g1382"
     transform="matrix(0.55072777,0,0,0.55072777,2.207366,-34.394826)">
    <path
       style="opacity:0.997"
       fill="#11587a"
       d="m 410.5,372.5 c -1.879,66.524 26.455,115.024 85,145.5 61.839,24.33 117.173,14.163 166,-30.5 0.333,3.333 0.667,6.667 1,10 -52.043,44.27 -109.71,53.103 -173,26.5 -58.065,-31.26 -87.065,-80.093 -87,-146.5 2.631,-1.653 5.297,-3.319 8,-5 z"
       id="path1380" />
  </g>
  <g
     id="g1386"
     transform="matrix(0.55072777,0,0,0.55072777,2.207366,-34.394826)">
    <path
       style="opacity:1"
       fill="#0091d0"
       d="m 551.5,371.5 c 14.992,-1.181 20.826,5.486 17.5,20 -4.126,6.47 -9.959,8.637 -17.5,6.5 -9.207,-5.632 -11.041,-13.132 -5.5,-22.5 2.015,-1.197 3.849,-2.53 5.5,-4 z"
       id="path1384" />
  </g>
  <g
     id="g1390"
     transform="matrix(0.55072777,0,0,0.55072777,2.207366,-34.394826)">
    <path
       style="opacity:0.998"
       fill="#125677"
       d="m 402.5,377.5 c -0.065,66.407 28.935,115.24 87,146.5 63.29,26.603 120.957,17.77 173,-26.5 0.333,2 0.667,4 1,6 -51.181,41.863 -107.847,51.03 -170,27.5 -62.612,-30.342 -94.612,-80.508 -96,-150.5 1.501,-1.252 3.168,-2.252 5,-3 z"
       id="path1388" />
  </g>
  <g
     id="g1394"
     transform="matrix(0.55072777,0,0,0.55072777,2.207366,-34.394826)">
    <path
       style="opacity:0.016"
       fill="#1b4862"
       d="m 568.5,366.5 c 17.568,6.026 32.735,15.693 45.5,29 2.157,2.317 3.657,4.984 4.5,8 -1.667,-1.333 -3.333,-2.667 -5,-4 -2.333,-3 -5,-5.667 -8,-8 -2.69,-2.685 -5.69,-5.018 -9,-7 -2.775,-3.105 -6.108,-5.438 -10,-7 -3.795,-3.405 -8.128,-6.071 -13,-8 -1.868,-0.763 -3.535,-1.763 -5,-3 z"
       id="path1392" />
  </g>
  <g
     id="g1398"
     transform="matrix(0.55072777,0,0,0.55072777,2.207366,-34.394826)">
    <path
       style="opacity:0.997"
       fill="#145373"
       d="m 397.5,380.5 c 1.388,69.992 33.388,120.158 96,150.5 62.153,23.53 118.819,14.363 170,-27.5 -0.263,4.1 0.07,8.1 1,12 -53.078,40.797 -111.078,49.297 -174,25.5 -64.27,-30.465 -98.603,-81.298 -103,-152.5 3.02,-3.016 6.354,-5.683 10,-8 z"
       id="path1396" />
  </g>
  <g
     id="g1402"
     transform="matrix(0.55072777,0,0,0.55072777,2.207366,-34.394826)">
    <path
       style="opacity:0.997"
       fill="#164f6d"
       d="m 387.5,388.5 c 4.397,71.202 38.73,122.035 103,152.5 62.922,23.797 120.922,15.297 174,-25.5 -0.187,5.345 -0.52,10.678 -1,16 -56.442,38.317 -116.442,44.817 -180,19.5 -63.61,-30.689 -99.61,-81.189 -108,-151.5 3.374,-4.376 7.374,-8.042 12,-11 z"
       id="path1400" />
  </g>
  <g
     id="g1406"
     transform="matrix(0.55072777,0,0,0.55072777,2.207366,-34.394826)">
    <path
       style="opacity:0.966"
       fill="#0092d1"
       d="m 688.5,391.5 c 17.316,1.21 34.649,2.21 52,3 14.985,6.486 28.985,14.486 42,24 -23.649,-1.543 -47.316,-2.876 -71,-4 -8,-7.333 -15.667,-15 -23,-23 z"
       id="path1404" />
  </g>
  <g
     id="g1410"
     transform="matrix(0.55072777,0,0,0.55072777,2.207366,-34.394826)">
    <path
       style="opacity:0.992"
       fill="#11587a"
       d="m 155.5,399.5 c 31.943,54.6 64.276,108.933 97,163 -1.018,14.401 -0.351,28.735 2,43 -35.918,-59.501 -71.585,-119.168 -107,-179 1.89,-9.326 4.556,-18.326 8,-27 z"
       id="path1408" />
  </g>
  <g
     id="g1414"
     transform="matrix(0.55072777,0,0,0.55072777,2.207366,-34.394826)">
    <path
       style="opacity:0.997"
       fill="#174c68"
       d="m 375.5,399.5 c 8.39,70.311 44.39,120.811 108,151.5 63.558,25.317 123.558,18.817 180,-19.5 -0.052,3.698 -0.386,7.365 -1,11 -67.094,40.838 -135.094,42.338 -204,4.5 -51.516,-32.825 -81.516,-79.659 -90,-140.5 2,-2.667 4.333,-5 7,-7 z"
       id="path1412" />
  </g>
  <g
     id="g1418"
     transform="matrix(0.55072777,0,0,0.55072777,2.207366,-34.394826)">
    <path
       style="opacity:0.997"
       fill="#184965"
       d="m 368.5,406.5 c 8.484,60.841 38.484,107.675 90,140.5 68.906,37.838 136.906,36.338 204,-4.5 -0.463,2.982 -0.796,5.982 -1,9 -68.675,39.402 -137.675,39.902 -207,1.5 -50.983,-32.412 -81.65,-78.579 -92,-138.5 1.622,-2.955 3.622,-5.622 6,-8 z"
       id="path1416" />
  </g>
  <g
     id="g1422"
     transform="matrix(0.55072777,0,0,0.55072777,2.207366,-34.394826)">
    <path
       style="opacity:0.993"
       fill="#194761"
       d="m 362.5,414.5 c 10.35,59.921 41.017,106.088 92,138.5 69.325,38.402 138.325,37.902 207,-1.5 -14.809,63.98 -53.143,107.147 -115,129.5 -72.578,19.356 -133.745,1.189 -183.5,-54.5 -37.575,-49.661 -46.908,-104.328 -28,-164 6.371,-17.76 15.538,-33.76 27.5,-48 z"
       id="path1420" />
  </g>
  <g
     id="g1426"
     transform="matrix(0.55072777,0,0,0.55072777,2.207366,-34.394826)">
    <path
       style="opacity:0.98"
       fill="#048eca"
       d="m 711.5,414.5 c 23.684,1.124 47.351,2.457 71,4 11.089,6.215 21.089,13.882 30,23 -28.01,-1.597 -56.01,-3.264 -84,-5 -5.66,-7.328 -11.326,-14.661 -17,-22 z"
       id="path1424" />
  </g>
  <g
     id="g1430"
     transform="matrix(0.55072777,0,0,0.55072777,2.207366,-34.394826)">
    <path
       style="opacity:0.988"
       fill="#125677"
       d="m 147.5,426.5 c 35.415,59.832 71.082,119.499 107,179 6.855,35.394 24.188,64.394 52,87 13.919,23.503 27.586,47.17 41,71 -4.667,0 -9.333,0 -14,0 -62.915,-107.504 -126.581,-214.504 -191,-321 1.373,-5.51 3.039,-10.844 5,-16 z"
       id="path1428" />
  </g>
  <g
     id="g1434"
     transform="matrix(0.55072777,0,0,0.55072777,2.207366,-34.394826)">
    <path
       style="opacity:0.984"
       fill="#048ac4"
       d="m 728.5,436.5 c 27.99,1.736 55.99,3.403 84,5 7.945,6.276 15.278,13.276 22,21 -30.96,-2.121 -61.96,-3.787 -93,-5 -4.083,-7.168 -8.416,-14.168 -13,-21 z"
       id="path1432" />
  </g>
  <g
     id="g1438"
     transform="matrix(0.55072777,0,0,0.55072777,2.207366,-34.394826)">
    <path
       style="opacity:0.997"
       fill="#145373"
       d="m 142.5,442.5 c 64.419,106.496 128.085,213.496 191,321 -10.014,-10e-4 -20.014,-0.334 -30,-1 -56.096,-94.534 -112.43,-188.868 -169,-283 2.411,-12.39 5.078,-24.723 8,-37 z"
       id="path1436" />
  </g>
  <g
     id="g1446"
     transform="matrix(0.55072777,0,0,0.55072777,2.207366,-34.394826)">
    <path
       style="opacity:0.988"
       fill="#0386be"
       d="m 741.5,457.5 c 31.04,1.213 62.04,2.879 93,5 5.762,6.096 10.762,12.762 15,20 -32.667,-1.667 -65.333,-3.333 -98,-5 -2.806,-6.946 -6.139,-13.612 -10,-20 z"
       id="path1444" />
  </g>
  <g
     id="g1450"
     transform="matrix(0.55072777,0,0,0.55072777,2.207366,-34.394826)">
    <path
       style="opacity:0.996"
       fill="#164f6d"
       d="m 134.5,479.5 c 56.57,94.132 112.904,188.466 169,283 -13.647,-1.273 -26.98,-3.607 -40,-7 -44.581,-76.837 -89.914,-153.17 -136,-229 1.681,-15.764 4.014,-31.43 7,-47 z"
       id="path1448" />
  </g>
  <g
     id="g1454"
     transform="matrix(0.55072777,0,0,0.55072777,2.207366,-34.394826)">
    <path
       style="opacity:0.991"
       fill="#0182b8"
       d="m 751.5,477.5 c 32.667,1.667 65.333,3.333 98,5 5.326,6.638 9.66,13.971 13,22 -34.663,-1.737 -69.33,-3.403 -104,-5 -1.535,-7.605 -3.869,-14.938 -7,-22 z"
       id="path1452" />
  </g>
  <g
     id="g1458"
     transform="matrix(0.55072777,0,0,0.55072777,2.207366,-34.394826)">
    <path
       style="opacity:0.991"
       fill="#007eb1"
       d="m 758.5,499.5 c 34.67,1.597 69.337,3.263 104,5 4.116,7.568 7.116,15.568 9,24 -36.336,-1.963 -72.669,-3.963 -109,-6 -0.309,-7.873 -1.642,-15.54 -4,-23 z"
       id="path1456" />
  </g>
  <g
     id="g1462"
     transform="matrix(0.55072777,0,0,0.55072777,2.207366,-34.394826)">
    <path
       style="opacity:0.993"
       fill="#0079ab"
       d="m 762.5,522.5 c 36.331,2.037 72.664,4.037 109,6 2.413,7.048 4.079,14.381 5,22 -37.632,-2.48 -75.298,-4.48 -113,-6 0.297,-7.42 -0.036,-14.754 -1,-22 z"
       id="path1460" />
  </g>
  <g
     id="g1466"
     transform="matrix(0.55072777,0,0,0.55072777,2.207366,-34.394826)">
    <path
       style="opacity:0.994"
       fill="#174c68"
       d="m 127.5,526.5 c 46.086,75.83 91.419,152.163 136,229 -9.804,-1.825 -19.137,-4.825 -28,-9 -36.304,-61.617 -72.97,-122.951 -110,-184 0.593,-12.005 1.26,-24.005 2,-36 z"
       id="path1464" />
  </g>
  <g
     id="g1470"
     transform="matrix(0.55072777,0,0,0.55072777,2.207366,-34.394826)">
    <path
       style="opacity:0.993"
       fill="#0075a5"
       d="m 763.5,544.5 c 37.702,1.52 75.368,3.52 113,6 0.906,6.968 1.573,13.968 2,21 -39.337,-1.926 -78.671,-3.926 -118,-6 0.894,-7.028 1.894,-14.028 3,-21 z"
       id="path1468" />
  </g>
  <g
     id="g1474"
     transform="matrix(0.55072777,0,0,0.55072777,2.207366,-34.394826)">
    <path
       style="opacity:0.992"
       fill="#01729f"
       d="m 760.5,565.5 c 39.329,2.074 78.663,4.074 118,6 -0.223,7.34 -0.556,14.673 -1,22 -41.29,-2.627 -82.623,-4.961 -124,-7 2.563,-7.022 4.896,-14.022 7,-21 z"
       id="path1472" />
  </g>
  <g
     id="g1478"
     transform="matrix(0.55072777,0,0,0.55072777,2.207366,-34.394826)">
    <path
       style="opacity:0.991"
       fill="#184965"
       d="m 125.5,562.5 c 37.03,61.049 73.696,122.383 110,184 -10.865,-3.432 -20.865,-8.432 -30,-15 -25.43,-43.201 -51.096,-86.201 -77,-129 -1.779,-13.221 -2.779,-26.555 -3,-40 z"
       id="path1476" />
  </g>
  <g
     id="g1482"
     transform="matrix(0.55072777,0,0,0.55072777,2.207366,-34.394826)">
    <path
       style="opacity:0.993"
       fill="#056e99"
       d="m 753.5,586.5 c 41.377,2.039 82.71,4.373 124,7 -1.013,7.083 -2.347,14.083 -4,21 -43.317,-2.555 -86.651,-4.888 -130,-7 3.606,-6.879 6.939,-13.879 10,-21 z"
       id="path1480" />
  </g>
  <g
     id="g1486"
     transform="matrix(0.55072777,0,0,0.55072777,2.207366,-34.394826)">
    <path
       style="opacity:0.96"
       fill="#194762"
       d="m 128.5,602.5 c 25.904,42.799 51.57,85.799 77,129 -29.182,-18.031 -50.349,-43.031 -63.5,-75 -7.012,-17.382 -11.512,-35.382 -13.5,-54 z"
       id="path1484" />
  </g>
  <g
     id="g1490"
     transform="matrix(0.55072777,0,0,0.55072777,2.207366,-34.394826)">
    <path
       style="opacity:0.993"
       fill="#076b95"
       d="m 743.5,607.5 c 43.349,2.112 86.683,4.445 130,7 -0.667,3.333 -1.333,6.667 -2,10 -44.696,-1.891 -89.362,-4.224 -134,-7 2.015,-3.369 4.015,-6.702 6,-10 z"
       id="path1488" />
  </g>
  <g
     id="g1494"
     transform="matrix(0.55072777,0,0,0.55072777,2.207366,-34.394826)">
    <path
       style="opacity:0.992"
       fill="#096891"
       d="m 737.5,617.5 c 44.638,2.776 89.304,5.109 134,7 -1.961,6.228 -4.294,12.228 -7,18 -46.403,-2.411 -92.736,-5.078 -139,-8 4.032,-5.69 8.032,-11.357 12,-17 z"
       id="path1492" />
  </g>
  <g
     id="g1498"
     transform="matrix(0.55072777,0,0,0.55072777,2.207366,-34.394826)">
    <path
       style="opacity:0.992"
       fill="#0b668d"
       d="m 725.5,634.5 c 46.264,2.922 92.597,5.589 139,8 -0.763,3.637 -2.097,6.97 -4,10 -48.003,-2.259 -96.003,-4.593 -144,-7 2.629,-3.963 5.629,-7.629 9,-11 z"
       id="path1496" />
  </g>
  <g
     id="g1502"
     transform="matrix(0.55072777,0,0,0.55072777,2.207366,-34.394826)">
    <path
       style="opacity:0.992"
       fill="#0d648a"
       d="m 716.5,645.5 c 47.997,2.407 95.997,4.741 144,7 -1.216,4.762 -3.216,9.095 -6,13 -49.941,-3.256 -99.941,-5.923 -150,-8 3.667,-4.333 7.667,-8.333 12,-12 z"
       id="path1500" />
  </g>
  <g
     id="g1506"
     transform="matrix(0.55072777,0,0,0.55072777,2.207366,-34.394826)">
    <path
       style="opacity:0.992"
       fill="#106186"
       d="m 704.5,657.5 c 50.059,2.077 100.059,4.744 150,8 -3.495,7.661 -7.495,14.995 -12,22 -53.847,-2.528 -107.513,-5.528 -161,-9 7.94,-6.603 15.607,-13.603 23,-21 z"
       id="path1504" />
  </g>
  <g
     id="g1514"
     transform="matrix(0.55072777,0,0,0.55072777,2.207366,-34.394826)">
    <path
       style="opacity:0.991"
       fill="#125e82"
       d="m 681.5,678.5 c 53.487,3.472 107.153,6.472 161,9 -2.515,5.043 -5.515,9.71 -9,14 -56.662,-3.074 -113.329,-6.074 -170,-9 5.961,-4.655 11.961,-9.322 18,-14 z"
       id="path1512" />
  </g>
  <g
     id="g1518"
     transform="matrix(0.55072777,0,0,0.55072777,2.207366,-34.394826)">
    <path
       style="opacity:0.977"
       fill="#11587a"
       d="m 306.5,692.5 c 11.537,8.855 23.87,16.521 37,23 8.973,15.316 17.973,30.649 27,46 -7.667,0.667 -15.333,1.333 -23,2 -13.414,-23.83 -27.081,-47.497 -41,-71 z"
       id="path1516" />
  </g>
  <g
     id="g1522"
     transform="matrix(0.55072777,0,0,0.55072777,2.207366,-34.394826)">
    <path
       style="opacity:0.992"
       fill="#115b7e"
       d="m 663.5,692.5 c 56.671,2.926 113.338,5.926 170,9 -3.917,6.59 -8.25,12.923 -13,19 -60.672,-3.26 -121.339,-6.593 -182,-10 8.31,-5.968 16.643,-11.968 25,-18 z"
       id="path1520" />
  </g>
  <g
     id="g1526"
     transform="matrix(0.55072777,0,0,0.55072777,2.207366,-34.394826)">
    <path
       style="opacity:0.992"
       fill="#11587a"
       d="m 638.5,710.5 c 60.661,3.407 121.328,6.74 182,10 -3.961,6.259 -8.627,11.925 -14,17 -64.655,-3.555 -129.322,-6.888 -194,-10 8.317,-6.161 16.983,-11.828 26,-17 z"
       id="path1524" />
  </g>
  <g
     id="g1530"
     transform="matrix(0.55072777,0,0,0.55072777,2.207366,-34.394826)">
    <path
       style="opacity:0.971"
       fill="#115c7f"
       d="m 343.5,715.5 c 18,8.445 36.667,15.112 56,20 3.695,6.684 7.362,13.35 11,20 -13.051,3.008 -26.384,5.008 -40,6 -9.027,-15.351 -18.027,-30.684 -27,-46 z"
       id="path1528" />
  </g>
  <g
     id="g1534"
     transform="matrix(0.55072777,0,0,0.55072777,2.207366,-34.394826)">
    <path
       style="opacity:0.994"
       fill="#125677"
       d="m 612.5,727.5 c 64.678,3.112 129.345,6.445 194,10 -2.294,3.627 -4.96,6.961 -8,10 -66.665,-3.368 -133.332,-6.702 -200,-10 4.365,-3.689 9.031,-7.022 14,-10 z"
       id="path1532" />
  </g>
  <g
     id="g1538"
     transform="matrix(0.55072777,0,0,0.55072777,2.207366,-34.394826)">
    <path
       style="opacity:0.934"
       fill="#106186"
       d="m 399.5,735.5 c 18.457,4.328 37.124,7.494 56,9.5 -14.698,4.839 -29.698,8.339 -45,10.5 -3.638,-6.65 -7.305,-13.316 -11,-20 z"
       id="path1536" />
  </g>
  <g
     id="g1542"
     transform="matrix(0.55072777,0,0,0.55072777,2.207366,-34.394826)">
    <path
       style="opacity:0.993"
       fill="#145373"
       d="m 598.5,737.5 c 66.668,3.298 133.335,6.632 200,10 -6.326,7.658 -12.992,14.992 -20,22 -70.357,-3.261 -140.69,-6.927 -211,-11 10.055,-7.384 20.388,-14.384 31,-21 z"
       id="path1540" />
  </g>
  <g
     id="g1546"
     transform="matrix(0.55072777,0,0,0.55072777,2.207366,-34.394826)">
    <path
       style="opacity:0.994"
       fill="#164f6d"
       d="m 567.5,758.5 c 70.31,4.073 140.643,7.739 211,11 -8.333,9 -17,17.667 -26,26 -73.659,-4.111 -147.325,-8.111 -221,-12 11.614,-8.814 23.614,-17.147 36,-25 z"
       id="path1544" />
  </g>
  <g
     id="g1550"
     transform="matrix(0.55072777,0,0,0.55072777,2.207366,-34.394826)">
    <path
       style="opacity:0.993"
       fill="#174c68"
       d="m 531.5,783.5 c 73.675,3.889 147.341,7.889 221,12 -5.958,5.658 -11.958,11.324 -18,17 -75.304,-4.443 -150.637,-8.443 -226,-12 7.361,-6.021 15.028,-11.687 23,-17 z"
       id="path1548" />
  </g>
  <g
     id="g1554"
     transform="matrix(0.55072777,0,0,0.55072777,2.207366,-34.394826)">
    <path
       style="opacity:0.993"
       fill="#184965"
       d="m 508.5,800.5 c 75.363,3.557 150.696,7.557 226,12 -5.591,5.466 -11.591,10.466 -18,15 -76.31,-4.406 -152.643,-8.406 -229,-12 6.716,-5.381 13.716,-10.381 21,-15 z"
       id="path1552" />
  </g>
  <g
     id="g1558"
     transform="matrix(0.55072777,0,0,0.55072777,2.207366,-34.394826)">
    <path
       style="opacity:0.991"
       fill="#194761"
       d="m 487.5,815.5 c 76.357,3.594 152.69,7.594 229,12 -66.845,56.903 -140.511,103.737 -221,140.5 -19.576,8.748 -39.91,15.081 -61,19 -14.077,2.269 -28.077,1.936 -42,-1 -18.314,-5.772 -26.147,-18.272 -23.5,-37.5 3.1,-16.301 8.766,-31.634 17,-46 5.582,-7.305 11.748,-14.139 18.5,-20.5 26.386,-23.899 54.053,-46.066 83,-66.5 z"
       id="path1556" />
  </g>
</svg>
