<?xml version="1.0" encoding="UTF-8" standalone="no"?>
<!-- Generator: Adobe Illustrator 26.0.3, SVG Export Plug-In . SVG Version: 6.00 Build 0)  -->

<svg
   version="1.0"
   id="Layer_1"
   x="0px"
   y="0px"
   viewBox="0 0 512.00001 512"
   xml:space="preserve"
   sodipodi:docname="ultraleap.svg"
   width="512"
   height="512"
   inkscape:version="1.2.2 (732a01da63, 2022-12-09)"
   xmlns:inkscape="http://www.inkscape.org/namespaces/inkscape"
   xmlns:sodipodi="http://sodipodi.sourceforge.net/DTD/sodipodi-0.dtd"
   xmlns="http://www.w3.org/2000/svg"
   xmlns:svg="http://www.w3.org/2000/svg"><defs
   id="defs794" /><sodipodi:namedview
   id="namedview792"
   pagecolor="#ffffff"
   bordercolor="#666666"
   borderopacity="1.0"
   inkscape:showpageshadow="2"
   inkscape:pageopacity="0.0"
   inkscape:pagecheckerboard="0"
   inkscape:deskcolor="#d1d1d1"
   showgrid="false"
   showguides="true"
   inkscape:zoom="1.4386874"
   inkscape:cx="430.2533"
   inkscape:cy="290.89016"
   inkscape:window-width="2400"
   inkscape:window-height="1261"
   inkscape:window-x="-9"
   inkscape:window-y="-9"
   inkscape:window-maximized="1"
   inkscape:current-layer="Layer_1"><sodipodi:guide
     position="207.82834,230.4934"
     orientation="0,-1"
     id="guide850"
     inkscape:locked="false" /></sodipodi:namedview>
<style
   type="text/css"
   id="style771">
	.st0{fill:#3A3839;}
	.st1{fill:#383637;}
	.st2{fill:#08D079;}
	.st3{fill:#393738;}
	.st4{fill:#3C3A3B;}
</style>



<path
   class="st2"
   d="m 50.992298,132.58602 c 67.725812,2.75627 134.270352,20.86899 194.121062,53.55063 7.48134,5.11881 17.32521,5.11881 24.80655,0 48.82558,-26.38156 102.37622,-43.31302 157.50188,-50.4006 17.71896,-2.36253 35.43791,-2.36253 53.15688,-3.15003 11.02513,-0.39377 19.68773,3.15003 24.01904,13.38765 4.3313,10.23762 0.78751,21.65651 -9.45011,29.92536 -14.56893,11.41889 -29.53161,22.44401 -44.10053,33.86291 -69.69458,55.91316 -127.97028,124.82023 -170.88954,202.78366 -2.36253,4.72506 -5.11881,9.05636 -8.6626,12.9939 -9.84387,9.84387 -24.80655,7.08759 -32.68165,-5.90631 C 223.8506,394.82664 209.28169,370.0201 192.35023,346.39481 150.21848,286.93786 99.030373,234.96223 40.360921,191.64922 32.485829,185.7429 24.610728,179.83658 17.129388,173.5365 8.860563,167.23643 5.7105252,156.60504 9.648077,147.15493 c 3.937522,-10.23762 12.206376,-14.56891 23.231505,-14.17516 6.300073,0 12.206394,-0.39375 18.112716,-0.39375 z M 315.59545,285.36284 c -1.18126,-1.96878 -2.75628,-3.93755 -4.72505,-5.90632 -15.35643,-12.99391 -31.10663,-24.80656 -47.64433,-35.83168 -5.1188,-3.15004 -9.05635,-1.57502 -13.38766,1.57501 -15.75018,10.63138 -30.31911,22.44402 -45.28179,34.25667 -4.72505,3.93754 -5.51256,7.48134 -1.18125,12.20639 18.50646,22.05026 35.04416,45.28179 49.21933,70.08833 3.15003,5.51257 5.11881,7.8751 9.45012,0.39377 14.17516,-24.80656 30.71286,-48.43184 49.21933,-70.08835 1.57502,-2.36252 3.15004,-4.3313 4.3313,-6.69382 z M 425.45302,179.04906 c -0.39377,-0.7875 -0.78752,-1.96877 -0.78752,-2.75627 -4.72505,0.7875 -9.45011,0.7875 -14.17516,1.96877 -12.60016,2.75628 -24.80656,5.90632 -37.4067,9.45011 -23.62529,6.69383 -46.85681,15.75018 -68.90708,26.77532 -5.51256,2.36252 -6.30007,5.11881 -0.7875,9.05636 10.63137,7.87509 21.26275,15.75018 31.50037,24.01904 5.51256,4.3313 9.05636,5.51256 14.56892,-0.39377 18.50648,-20.08148 38.19421,-38.58795 59.45697,-55.5194 5.51256,-3.93755 11.02513,-8.26885 16.5377,-12.60016 z M 90.367767,177.86781 c 27.562823,21.6565 53.550633,45.67554 77.963433,71.66335 3.54379,3.93755 6.30007,2.75628 9.84386,0 9.84387,-7.8751 20.08149,-16.14395 30.31911,-23.62529 10.23763,-7.48134 9.84387,-7.87509 -0.7875,-12.9939 -24.4128,-12.20639 -50.00686,-21.65651 -76.38842,-27.95659 -13.38766,-3.54379 -26.77532,-8.66259 -40.950483,-7.08757 z"
   id="path779"
   style="stroke-width:3.93755" />





</svg>
