<?xml version="1.0" encoding="UTF-8" standalone="no"?>
<svg
   viewBox="0,0,256,256"
   width="250px"
   height="250px"
   version="1.1"
   id="svg375"
   sodipodi:docname="csharp.svg"
   inkscape:version="1.2.2 (732a01da63, 2022-12-09)"
   xmlns:inkscape="http://www.inkscape.org/namespaces/inkscape"
   xmlns:sodipodi="http://sodipodi.sourceforge.net/DTD/sodipodi-0.dtd"
   xmlns="http://www.w3.org/2000/svg"
   xmlns:svg="http://www.w3.org/2000/svg">
  <defs
     id="defs379" />
  <sodipodi:namedview
     id="namedview377"
     pagecolor="#ffffff"
     bordercolor="#666666"
     borderopacity="1.0"
     inkscape:showpageshadow="2"
     inkscape:pageopacity="0.0"
     inkscape:pagecheckerboard="0"
     inkscape:deskcolor="#d1d1d1"
     showgrid="false"
     inkscape:zoom="3.332"
     inkscape:cx="89.135654"
     inkscape:cy="125.30012"
     inkscape:window-width="2400"
     inkscape:window-height="1261"
     inkscape:window-x="-9"
     inkscape:window-y="-9"
     inkscape:window-maximized="1"
     inkscape:current-layer="svg375" />
  <g
     fill="#ffffff"
     fill-rule="nonzero"
     stroke="none"
     stroke-width="1"
     stroke-linecap="butt"
     stroke-linejoin="miter"
     stroke-miterlimit="10"
     stroke-dasharray=""
     stroke-dashoffset="0"
     font-family="none"
     font-weight="none"
     font-size="none"
     text-anchor="none"
     style="mix-blend-mode: normal"
     id="g373">
    <g
       transform="scale(5.12,5.12)"
       id="g371">
      <path
         d="m 25,0.13925651 c -0.772672,0 -1.545355,0.19422727 -2.233587,0.58267099 L 4.5599716,10.952491 c -1.3933474,0.781125 -2.258912,2.246255 -2.258912,3.816935 v 20.461139 c 0,1.570691 0.8655646,3.03581 2.258912,3.816935 L 22.766413,49.278063 c 0.688232,0.388455 1.460904,0.582671 2.233587,0.582671 0.772672,0 1.545355,-0.194227 2.233587,-0.582671 L 45.440028,39.051715 c 1.393348,-0.78534 2.258912,-2.25047 2.258912,-3.821161 V 14.769415 c 0,-1.57068 -0.865564,-3.03581 -2.258912,-3.816935 L 27.233587,0.72191669 C 26.545355,0.33347297 25.772683,0.1392457 25,0.1392457 Z M 25,12.029178 c 4.08716,0 7.866091,1.895804 10.315015,5.121616 l -4.737388,2.744475 C 29.154717,18.337246 27.132252,17.433687 25,17.433687 c -4.1716,0 -7.566313,3.394713 -7.566313,7.566314 0,4.171611 3.394713,7.566313 7.566313,7.566313 2.132252,0 4.154717,-0.903569 5.577627,-2.461581 l 4.737388,2.744475 C 32.866102,36.07503 29.08716,37.970824 25,37.970824 c -7.152533,0 -12.970823,-5.81829 -12.970823,-12.970823 0,-7.152534 5.81829,-12.970823 12.970823,-12.970823 z m 10.809019,7.566313 h 2.161804 v 2.161804 h 2.161804 v -2.161804 h 2.161804 v 2.161804 h 2.161804 v 2.161804 h -2.161804 v 2.161804 h 2.161804 v 2.161804 h -2.161804 v 2.161803 h -2.161804 v -2.161803 h -2.161804 v 2.161803 h -2.161804 v -2.161803 h -2.161804 v -2.161804 h 2.161804 v -2.161804 h -2.161804 v -2.161804 h 2.161804 z m 2.161804,4.323608 v 2.161804 h 2.161804 v -2.161804 z"
         id="path369"
         style="stroke-width:1.0809" />
    </g>
  </g>
</svg>
